<svg xmlns="http://www.w3.org/2000/svg" xmlns:xlink="http://www.w3.org/1999/xlink" width="1920.641" height="277.343" viewBox="0 0 1920.641 277.343">
  <defs>
    <linearGradient id="linear-gradient" x1="1" y1="0.827" x2="0.013" y2="1" gradientUnits="objectBoundingBox">
      <stop offset="0" stop-color="#cffafe"/>
      <stop offset="1" stop-color="#6de1f9"/>
    </linearGradient>
    <linearGradient id="linear-gradient-2" x1="0.964" y1="0.173" x2="0.134" y2="0.921" gradientUnits="objectBoundingBox">
      <stop offset="0" stop-color="#fdc564"/>
      <stop offset="1" stop-color="#fffaf2"/>
    </linearGradient>
  </defs>
  <g id="Group_1965" data-name="Group 1965" transform="translate(0.641 -5288.365)">
    <path id="Path_4641" data-name="Path 4641" d="M14314,5649.333V5478.048s-31.336-36.757-75.669-59.835-101.665-32.475-101.665-32.475-42.015-9.443-82.272-5.34-78.757,21.751-78.757,21.751-99.545,41.911-102.16,41.42-2.125-8.336-3.854-8.769-3.206-2.656-26.548,9.913-65.395,40.341-65.395,40.341-5.166-2.372-7.932-2.128-24.021,18.31-24.021,18.31-6.444,2.157-9.057,0-5.187-9.79-5.187-9.79-23.842,24.514-61.2,41.436-88.709,24.551-88.709,24.551v22.152s.092,2.233-1.845,2.718a2.52,2.52,0,0,1-2.813-1.427l-8.839-14.917v18.785l-3.868-13.536v14.917l-5.524,2.763v-17.679h-3.038l-1.658,8.377-6.63-2.023-2.21,7.182,4.7,4.144v5.525h-8.84s-10.444,5.333-24.771,10.933-32.534,11.465-32.534,11.465l-10.783-.838a43.793,43.793,0,0,1-1.2,6.524,21.639,21.639,0,0,1-2.117,4.922,12.121,12.121,0,0,1-3.549,1.774,22.808,22.808,0,0,1-4.75.744h-4.692a27.316,27.316,0,0,1-5.323,5.494c-2.575,1.717-8.139,4.48-18.581,4.754s-24.862,11.9-24.862,11.9Z" transform="translate(-12394 -91)" fill="url(#linear-gradient)"/>
    <path id="features-illustration-top-light" d="M282.67,38.744c.068.748-.481,1.062-.344,1.856-1.023-1.019-1.187-.743-2.263.1-.406-2.085,1.617-.557,2.607-1.953Zm.632,1.606c1.047.092,2.232-3.265,3.688-.844-1.671.925-2.356,1.25-2.407,2.956-.557-.377-.969-1.116-2.01-.291.2-.767.742-1.289.614-2.292.43-.06.315.4.115.471Zm-11.8,6.208c2.179,2.112-1.78,1.068-2.789,2.123.03-.522.653-.664.111-1.546.969.118,3.184,1.218,2.677-.578ZM166.123,152.61c1.861-4.4,6.361-4.8,9.347-7.65C174.939,147.583,168.339,149.6,166.123,152.61ZM337.752,12.553c.538-.014,1.044.011,1.03.914,2.544-.231,2.956-2.443,5.3-2.809-.323-1.194-.777-2.184-1.7-2.451-.554,1.554-1.608,3.919-3.234,2.036a2.413,2.413,0,0,1-.53,2.187A.435.435,0,1,0,337.752,12.553Zm6.1-1.433c1.945-.018.783-3.924-.263-2.2-.129-.667-.286-1.288-1.038-.984.08,1.628,1.23,1.552,1.3,3.179ZM322.978,16.6c-1.022-.525-3.749.111-3.367,1.815C320.312,17.489,323.193,18.249,322.978,16.6Zm-5.684,3.441c-.487,1.768-3.056,1.913-4.325,3.109C311.662,21.52,315.455,20.5,317.294,20.043Zm6.3,2.217c.5-2.657,3.047-3.521,5.369-4.312,2.333-.739,4.439-1.464,4.057-4.061-1.867,1.286-1.55,1.082-3.583.562.893,3.333-1.5.918-1.741,3.085-.581.107-.578-.875-1.078-.915-1.285,1.1-.853,2.324-3.32,1.76,0,2.727-2.929,1.1-4.4,3.1l.223,1.082c.274-.025.535-.022.549.455,1.109-.716,1.17-2.314,2.62-2.755C322.511,21.333,323.622,20.716,323.592,22.26Zm-19,7.534c.5,1.549,1.576,1.843,2.311,2.856l2.13-.312c-.42-1.592.993-1.805,1.9-2.408.517,1.17,1.511,1.977.982,3.048.395-1.735,1.234-3.741-.183-4.761,1.187.928.812-.689,1.4-1.27-.678-.385-5.186.723-1.832,1.332-3.274-.538-3.9,1.786-6.706,1.515ZM63.363,188.195a14.881,14.881,0,0,1,3.273-1.156c.186.777-2.733,3.04-3.271,1.156ZM248.448,95.882a7.2,7.2,0,0,1-2.833,1.811c-.166-1.447,4.358-3.215,4.93-2.784l-2.1.971Zm-25.621,22.337c-4.037,1.461-6.224,3.879-10.1,5.444C214.589,121.479,219.622,117.282,222.827,118.219Zm-20.979,12.247c.821-.395,3.979-1.316,4.361-3.7C204.8,128.238,197.683,132.421,201.848,130.466ZM17.424,216.536c-3.895.47-11.432,5.8-16.93,5.487a158.894,158.894,0,0,0,15.254-7.067c-.557-1.058-1.7.56-2.5.6,18.322-9.811,30.364-15.523,45.46-23.768,1-.952-.159-1.944.072-2.491l7.605-4.178c.923,2.633,2.378,1.805,3.629,2.311,1.172-.207-1.485-2.085-.312-2.289-.624-1-1.472-.514-2.333.051,9.254-6.52,23.675-14.576,37.13-22.913-.291-1.07,2.273-.926.965-2.429,7.117.271,10-5.905,16.089-8.069-1.63-1.073,1.437-.524,1.665-2.836.893-.541.634.1.891.735,19.86-12.4,40.881-25.054,53.737-35.286a17.627,17.627,0,0,0,9.735-5.8c6.392-3.343,13.864-6.287,17.979-12.809.538.759.164,1.052-.25,1.324a35.775,35.775,0,0,0,11.4-6.13c.785-.455-1.054-1.008-1.149-2.439.627-.648,2.692-.53,2.341-1.7,2.429.848-2.072,1.066-.554,2.647,2.964,0,4.918-2.5,6.65-4.914,11.922-3.328,23.51-13.278,32.021-17.059.154-1.62-2.045-.314-.963-1.363.718-.068.567-.673.377-1.305,1.544-.186.415,1.579,1.717,2.219,6.653-4.392,10.085-5.39,14.264-9.807-.239,2.214.684-.194,1.512.63,1.039-1.918,1.273-4.4,3.874-5.28.646,1.682-2.139,1.866-2.665,3.736a44.822,44.822,0,0,0,7.661-3.215,19.933,19.933,0,0,0,7-6.561c-1.044-2.072-2.2,1.471-2.849-.821,2.22-2.738,4.119-4.294,7.145-3.836.057.592-.705.567-.513,1.257-.138-.938,4.252-2.012,3.445-4.844,2.372.977,3.757-.39,3.39-3.709,1.28.382,2.948-.134,3.8,1.208.342-.592-.419-1.237.828-1.9-2.19-1.95-3.172-.8-6.41.611-.5,1.2.493.879.689,2.606-1.878.068-.837-1.8-2.741-2.05-3.045,1.423-2.658,3.075-5.95,3.9-.22-3.983,3.884-3.8,6.08-5.052.384-1.114,2.3-3.274,2.192-3.384.322-1.265,1.019.31.825,1.453,3.7-1.735,3.168-4.2,3.233-6.454,1.356.267,1.789,1.257,1.62,2.945,3.072-2.219,8.809-2,8.361-8.061.511.244.707,1.111,1.506.754.153-2.8,3.542-.207,3.623-4.075,2.123,1.915,4.552-1.242,6.292-2.343l.5,2.65c2.478-1.044,4.258-2.722,6.478-3.935-1.821-2.241-3.879,2.088-6.341,2.26a47.353,47.353,0,0,1,8.955-6.746q4.913-2.934,9.964-5.625c-4.181,3.8-7.935,5.34-12.408,8.443,1.267,1.2,2.017-1.523,3.169.043,2.155-2.835,8.035-6.236,10.108-5.323,1.087-3.144,5.183-3.836,8.883-6.493,1.7.885-1.21,1.386-1.138,2.311.326,1.767,1.982-1.869,1.918.86-2.095.387-1.926.955-2.827-.753.239,2.391-1.2.543-1.06,2.838-.933.366-.945-.664-1.082-1.5-.143,1.52-.115,3.314-2,2.415.5,3.094,4.326.559,4.438-1.07a8.838,8.838,0,0,0,7.123-1.819c1,0,1.09,1.278,1.138,2.618.153-1.541,3.82,1.221,2.954,3.02,3.015,1.768,3.543.748,5.975,2.251-1.264,1.544.422.64-.721,2.762.46,1.5,1.856,1.676,2.786,2.494.449,2.346-1.285,2.314-1.523,3.9,1.862-.089-.47,2.493,2.248,1.456-.584,1.378-1.858,2.257.143,2.695.42,2-1.56,1.3-1.549,2.827.169,1.894,1.337,2.316,1.5,4.212.242,1.286-.694,1.229-.264,2.728a73.308,73.308,0,0,1-11.454,9.789,87.1,87.1,0,0,1-12.829,7.831c-13.757,7.013-27.746,15.2-41.767,22.634-4.253,2.17-8.807,4.67-13.436,6.875-4.6,2.415-9.264,4.626-13.655,6.837-15.083,7.494-26.426,14.06-38.385,21.106-11.951,7.067-24.5,14.572-41.66,25.07-13.78,8.419-29.622,20.28-44.653,27.894-6.883,3.472.611-1.485,1.913-2.338,14.211-9.32,26.447-16.217,40.244-26.068-2.057.271-5.393,2.155-7.308,3.935,10.547-9.706,25.971-17.219,38.256-24.433.178,1.635-1.1,1.006-2.356,2.311,5.519-.9,8.191-5.082,14.24-7.239-2.558-1.5-3.7,2.007-7.29,2.773-.581.223-1.24.866-1.643.174l1.412-.662c10.714-8.083,23.249-13.616,33.076-20.677-7.943,3.392-17.484,6.723-25.329,14.152.024-.535.041-1.071-.436-.987-7.833,4.38-15.328,8.471-22.12,12.845,8.586-7.063,18.571-12.118,28.549-18.66-5.733,1.2-10.456,5.783-17.3,8.449-.871.127-.355,1.016-.032,1.8-5.292.805-9.67,3.862-14.061,6.2-33.337,18.05-60.758,37.52-98.91,60.433-1.579.955-3.23,1.619-5.337,3.08-1.639,1.146-4.134,1.109-5.885,2.142-4.447,2.642-7.927,8-13.178,6.9-1.13,1.008-4.419,2.333-3.145,1.162C91.2,183,97.115,181.123,101.4,178.366c17.987-11.55,36-21.211,51.472-31.558-14.946,6.053-27.916,17.625-40.968,24.266-6.061,3.072-13.075,7.721-18.819,10.184-26.117,11.285-49.538,30.42-78.385,38.386.9-1.993,2.187-2.369,2.722-3.109ZM305.644,26.553c-.63.366-1.122-2.542.053-2.085,0,.422-.294.608-.21,1.1,1.842.384.188-2.111,1.63-2.064-.619,2.271.965-.377,2.324-.223-1.226,1.74-2.674,2.392-3.8,3.273ZM280.935,44.431c-.945-.646-1.536.875-3.217.879.551-2.276,2.343-2.17,2.539-4.022C281.69,41.69,281.031,43.818,280.935,44.431Zm-6.276,2.6c-.3.185-.454-.091-.592-.387-.341.934.443,3.575-1.2,2.537-.47-1.288,1.49-.995.215-2.814C273.811,45.978,274.36,46.125,274.659,47.034Zm1.087-.758c1.089.442-.68,3.558-1.639,2.711C273.556,47.36,275.466,47.362,275.746,46.276Zm-5.778,4.142-.544-1.585c.769-.124,1.875-1.219,2,.509-.756.175-.642.936-1.455,1.076Zm-9.479,3.688c-.473.008-.678-.9-1.194-.747.038-1.183,2.213-1.041,2.111-2.319,1.511.807-.1,2.722-1.332,2.077l.415.987Zm2.454-.337c.9.154,4.143-1.172,3.686-3.268,1.089,1.014,1.243.724,2.335-.205.82,1.417-.476,1.417-.111,2.531-2.754-.92-4.111,4.2-5.91.942ZM237.906,66.687c-1.257,1.076-1.3-2.1-1.964-3.086C237.075,63.118,238.116,65.821,237.906,66.687ZM224.5,75.836a3.206,3.206,0,0,1,2.257-2.225C227.053,74.98,225.2,76.175,224.5,75.836Zm28.433-11.5a3.044,3.044,0,0,0-.352-1.684c1.845,2.057,4.04-4.78,5.293.218-2.645-2.158-2.754,3-4.941,1.464ZM220.551,78.809c.242-1.3,2.141-2.1,3.039-3.793a4.017,4.017,0,0,0-.164,2.789c-1.668.019-1.52,1.727-2.875,1Zm28.317-11.015a1.74,1.74,0,0,0-1.393-.054c-.853-1.3.366-1.348-.041-2.384a2.117,2.117,0,0,1,1.433,2.439Zm2.026-2.587c.5,1.1-1.308.783-1.768,1.292-.224-1.057.33-1.639-.239-2.907,1.407-.146,1.426,1.433,2.006,1.614Zm-54.13,27.975c-.443-1.99,2.886-2.092,3.645-3.47C200.8,92.543,198.393,91.347,196.764,93.183Zm3.148,7.09a3.657,3.657,0,0,0-.74-1.985l2.114-.891c1.031,2.375-1.054,1.183-1.374,2.876ZM41.1,198.946c2.483-3.545,9.291-4.942,15.9-9.57C54.309,192.289,46.035,195.878,41.1,198.946Zm159.608-74.057c.92,2.163-2.934,1.974-4.018,3.148C194.5,127.828,200.6,126.206,200.705,124.889Zm-18.579,15.879c-.094-1.765,4.111-1.5,4.024-3.268C187.9,138.562,182.631,140.741,182.127,140.768Zm-1,2.135c-2.122-2.892-5.361,3.642-.626-.286C180.678,142.9,180.868,143.162,181.124,142.9Zm-25.7,15.779c2.407-1.83,6.521-6.622,10.1-5.444C162.069,154.877,157.8,157.685,155.421,158.681Zm-50.415,29.293a72.8,72.8,0,0,1,9.87-6.039c-.156,1.52-3.344,3.152-6.041,4.632-2.021,1.121-6.626,3.621-3.83,1.407Z" transform="translate(663.507 5343.673)" fill-rule="evenodd" fill="url(#linear-gradient-2)"/>
    <path id="Path_4642" data-name="Path 4642" d="M12404.641,5350.8c22.157,40.6,72.109,106.366,72.109,106.366s7.829-4.862,11.522-12.479-.892-17.987,3.25-17.987-.094,18.775,13.318,17.987,5.826-29.23,12.532-17.987-.479,37.253,14.292,62.958,44.795,39.863,44.795,39.863h-188.339V5426.705l51.7,45.7-51.7-83.781v-93.835S12382.483,5310.208,12404.641,5350.8Z" transform="translate(-12388.12 28)" fill="#afd5ef"/>
    <path id="Path_4643" data-name="Path 4643" d="M13563.018,6055.655a71.325,71.325,0,0,1,11.024-12.2,100.382,100.382,0,0,1,15.072-10.259,61.679,61.679,0,0,1,8.3-10.663c4.855-4.855,8.663-6.865,11.119-8.758s4.679-4.929,8.169-12.818,4.576-19.125,4.576-19.125.987,2.893-5.394,7.846-13.642,8.254-18.918,12.349c-10.166,7.89-10.284,10.63-13.283,15.276s-1.415,9.861-2.942,12.913-7.065,5.887-11.769,12.259A35.638,35.638,0,0,0,13563.018,6055.655Z" transform="translate(-12061 -631)" fill="#1592e6"/>
  </g>
</svg>
