<svg xmlns="http://www.w3.org/2000/svg" xmlns:xlink="http://www.w3.org/1999/xlink" width="247.298" height="271.221" viewBox="0 0 247.298 271.221">
  <defs>
    <linearGradient id="linear-gradient" x1="0.937" y1="0.116" x2="0.208" y2="0.845" gradientUnits="objectBoundingBox">
      <stop offset="0" stop-color="#2feafc"/>
      <stop offset="1" stop-color="#2feafc" stop-opacity="0"/>
    </linearGradient>
    <linearGradient id="linear-gradient-2" x1="0.5" x2="0.771" y2="0.771" gradientUnits="objectBoundingBox">
      <stop offset="0" stop-color="#fe7e1f"/>
      <stop offset="1" stop-color="#ffcf7b"/>
    </linearGradient>
    <linearGradient id="linear-gradient-3" x1="0.5" x2="0.771" y2="0.771" gradientUnits="objectBoundingBox">
      <stop offset="0" stop-color="#fff" stop-opacity="0.478"/>
      <stop offset="1" stop-color="#fff" stop-opacity="0"/>
    </linearGradient>
  </defs>
  <g id="Group_1960" data-name="Group 1960" transform="translate(-50 80.88)">
    <path id="features-illustration-top-light" d="M177.77,24.36c.043.47-.3.667-.216,1.166-.643-.64-.746-.467-1.422.062-.255-1.31,1.016-.35,1.638-1.227Zm.4,1.009c.658.058,1.4-2.051,2.317-.53-1.05.581-1.48.785-1.512,1.857-.35-.237-.609-.7-1.263-.183.128-.482.466-.81.386-1.44.27-.038.2.251.072.3Zm-7.411,3.9c1.369,1.327-1.118.671-1.752,1.334.019-.328.41-.417.07-.971.609.074,2,.765,1.682-.363ZM104.55,95.9c1.169-2.764,4-3.013,5.872-4.806C110.088,92.738,105.942,94,104.55,95.9ZM212.375,7.906c.338-.009.656.007.647.574,1.6-.145,1.857-1.535,3.327-1.765-.2-.75-.488-1.372-1.068-1.54-.348.976-1.01,2.462-2.032,1.279a1.516,1.516,0,0,1-.333,1.374.273.273,0,1,0-.541.078Zm3.835-.9c1.222-.011.492-2.465-.165-1.379-.081-.419-.18-.809-.652-.618.05,1.023.773.975.817,2Zm-13.117,3.443c-.642-.33-2.355.07-2.115,1.14C201.418,11.007,203.228,11.484,203.093,10.449Zm-3.571,2.162c-.306,1.111-1.92,1.2-2.717,1.953C195.984,13.539,198.367,12.9,199.522,12.611ZM203.479,14c.314-1.669,1.914-2.212,3.373-2.709,1.466-.464,2.789-.92,2.549-2.551-1.173.808-.974.68-2.251.353.561,2.094-.94.577-1.094,1.938-.365.067-.363-.55-.677-.575-.807.69-.536,1.46-2.086,1.106,0,1.713-1.84.693-2.762,1.947l.14.68c.172-.016.336-.014.345.286.7-.45.735-1.454,1.646-1.731C202.8,13.422,203.5,13.034,203.479,14Zm-11.938,4.733c.317.973.99,1.158,1.452,1.794l1.338-.2c-.264-1,.624-1.134,1.193-1.513.325.735.949,1.242.617,1.915.248-1.09.775-2.35-.115-2.991.746.583.51-.433.879-.8-.426-.242-3.258.454-1.151.837-2.057-.338-2.45,1.122-4.213.952ZM39.991,118.252a9.349,9.349,0,0,1,2.056-.726c.117.488-1.717,1.91-2.055.726Zm116.279-58a4.526,4.526,0,0,1-1.78,1.138c-.1-.909,2.738-2.02,3.1-1.749l-1.317.61Zm-16.1,14.033c-2.536.918-3.91,2.437-6.348,3.42C135,76.338,138.16,73.7,140.174,74.29Zm-13.18,7.694c.516-.248,2.5-.827,2.74-2.327C128.848,80.584,124.377,83.212,126.994,81.984ZM11.13,136.057C8.683,136.352,3.948,139.7.494,139.5a99.826,99.826,0,0,0,9.583-4.44c-.35-.665-1.069.352-1.57.377,11.511-6.164,19.076-9.752,28.56-14.932.626-.6-.1-1.221.045-1.565l4.778-2.625c.58,1.654,1.494,1.134,2.28,1.452.736-.13-.933-1.31-.2-1.438-.392-.631-.925-.323-1.466.032,5.814-4.1,14.874-9.157,23.327-14.4-.183-.672,1.428-.582.606-1.526,4.471.17,6.283-3.71,10.108-5.069-1.024-.674.9-.329,1.046-1.782.561-.34.4.065.56.462,12.477-7.788,25.683-15.74,33.76-22.168a11.074,11.074,0,0,0,6.116-3.643c4.016-2.1,8.71-3.95,11.295-8.047.338.477.1.661-.157.832a22.476,22.476,0,0,0,7.159-3.851c.493-.286-.662-.633-.722-1.532.394-.407,1.691-.333,1.471-1.066,1.526.533-1.3.67-.348,1.663,1.862,0,3.09-1.57,4.178-3.087,7.49-2.091,14.77-8.342,20.117-10.717.1-1.018-1.285-.2-.6-.856.451-.043.356-.423.237-.82.97-.117.261.992,1.079,1.394,4.18-2.759,6.336-3.386,8.961-6.161-.15,1.391.43-.122.95.4.653-1.205.8-2.764,2.434-3.317.406,1.057-1.344,1.172-1.674,2.347a28.159,28.159,0,0,0,4.813-2.02,12.523,12.523,0,0,0,4.4-4.122c-.656-1.3-1.383.924-1.79-.516,1.4-1.72,2.588-2.7,4.489-2.41.036.372-.443.356-.322.79-.087-.589,2.671-1.264,2.164-3.043,1.49.614,2.36-.245,2.13-2.33.8.24,1.852-.084,2.39.759.215-.372-.263-.777.52-1.194-1.376-1.225-1.993-.5-4.027.384-.317.756.31.552.433,1.637-1.18.043-.526-1.13-1.722-1.288-1.913.894-1.67,1.932-3.738,2.448-.138-2.5,2.44-2.388,3.82-3.174a24.487,24.487,0,0,1,1.377-2.126c.2-.8.64.195.518.913,2.327-1.09,1.99-2.637,2.031-4.055.852.168,1.124.79,1.018,1.85,1.93-1.394,5.534-1.257,5.253-5.064.321.153.444.7.946.474.1-1.76,2.225-.13,2.276-2.56,1.334,1.2,2.86-.78,3.953-1.472l.312,1.665a43.292,43.292,0,0,0,4.07-2.472c-1.144-1.408-2.437,1.312-3.984,1.42a29.749,29.749,0,0,1,5.626-4.238q3.086-1.843,6.26-3.534c-2.627,2.385-4.985,3.355-7.795,5.3.8.755,1.267-.957,1.991.027,1.354-1.781,5.048-3.918,6.35-3.344.683-1.975,3.256-2.41,5.581-4.079,1.07.556-.76.871-.715,1.452.205,1.11,1.245-1.174,1.205.54-1.316.243-1.21.6-1.776-.473.15,1.5-.756.341-.666,1.783-.586.23-.594-.417-.68-.943-.09.955-.072,2.082-1.258,1.517.313,1.944,2.718.351,2.788-.672a5.552,5.552,0,0,0,4.475-1.143c.63,0,.685.8.715,1.645.1-.968,2.4.767,1.856,1.9,1.894,1.111,2.226.47,3.754,1.414-.794.97.265.4-.453,1.735.289.944,1.166,1.053,1.75,1.567.282,1.474-.807,1.454-.957,2.453,1.17-.056-.295,1.566,1.412.915-.367.866-1.167,1.418.09,1.693.264,1.257-.98.816-.973,1.776.106,1.19.84,1.455.941,2.646.152.808-.436.772-.166,1.714a46.055,46.055,0,0,1-7.2,6.15,54.722,54.722,0,0,1-8.06,4.92c-8.643,4.406-17.431,9.548-26.24,14.22-2.672,1.363-5.533,2.934-8.441,4.319-2.89,1.517-5.82,2.906-8.579,4.3-9.476,4.708-16.6,8.833-24.115,13.26s-15.39,9.155-26.173,15.75c-8.657,5.289-18.61,12.741-28.053,17.524-4.324,2.181.384-.933,1.2-1.469,8.928-5.855,16.615-10.188,25.283-16.377a10.471,10.471,0,0,0-4.591,2.472c6.626-6.1,16.316-10.818,24.034-15.35.112,1.027-.692.632-1.48,1.452,3.467-.568,5.146-3.193,8.946-4.548-1.607-.944-2.327,1.261-4.58,1.742-.365.14-.779.544-1.032.109l.887-.416c6.731-5.078,14.606-8.554,20.78-12.99-4.99,2.131-10.984,4.224-15.913,8.891.015-.336.026-.673-.274-.62-4.921,2.752-9.63,5.322-13.9,8.07,5.394-4.437,11.667-7.613,17.936-11.723-3.6.757-6.569,3.633-10.87,5.308-.547.08-.223.638-.02,1.13-3.325.506-6.075,2.426-8.834,3.9-20.944,11.34-38.171,23.572-62.14,37.967-.992.6-2.029,1.017-3.353,1.935-1.03.72-2.6.7-3.7,1.346-2.794,1.66-4.98,5.026-8.279,4.336-.71.633-2.776,1.466-1.976.73,3.118-2.91,6.834-4.088,9.526-5.82,11.3-7.256,22.617-13.326,32.337-19.826-9.39,3.8-17.538,11.073-25.738,15.245-3.808,1.93-8.214,4.851-11.823,6.4-16.408,7.09-31.122,19.111-49.245,24.116.565-1.252,1.374-1.488,1.71-1.953ZM192.2,16.7c-.4.23-.705-1.6.033-1.31,0,.265-.185.382-.132.691,1.157.241.118-1.326,1.024-1.3-.389,1.427.606-.237,1.46-.14A9,9,0,0,1,192.2,16.7ZM176.68,27.933c-.594-.406-.965.55-2.021.552.346-1.43,1.472-1.363,1.6-2.527C177.154,26.211,176.74,27.548,176.68,27.933Zm-3.943,1.635c-.19.116-.285-.057-.372-.243-.214.587.278,2.246-.756,1.594-.295-.809.936-.625.135-1.768C172.2,28.905,172.549,29,172.737,29.568Zm.683-.476c.684.278-.427,2.235-1.03,1.7C172.044,29.773,173.244,29.774,173.42,29.092Zm-3.63,2.6-.342-1c.483-.078,1.178-.766,1.257.32-.475.11-.4.588-.914.676Zm-5.955,2.317c-.3.005-.426-.563-.75-.469.024-.743,1.39-.654,1.326-1.457.949.507-.065,1.71-.837,1.305l.261.62Zm1.542-.212c.568.1,2.6-.736,2.316-2.053.684.637.781.455,1.467-.129.515.89-.3.89-.07,1.59-1.73-.578-2.583,2.64-3.713.592Zm-15.73,8.116c-.79.676-.816-1.317-1.234-1.939C149.125,39.673,149.779,41.371,149.647,41.915Zm-8.422,5.748a2.014,2.014,0,0,1,1.418-1.4C142.829,47.125,141.664,47.876,141.225,47.663Zm17.863-7.227a1.912,1.912,0,0,0-.221-1.058c1.159,1.292,2.538-3,3.325.137-1.662-1.356-1.73,1.885-3.1.92Zm-20.344,9.1c.152-.814,1.345-1.32,1.909-2.383a2.523,2.523,0,0,0-.1,1.752c-1.048.012-.955,1.085-1.806.63Zm17.79-6.92a1.093,1.093,0,0,0-.875-.034c-.536-.815.23-.847-.026-1.5a1.33,1.33,0,0,1,.9,1.532Zm1.273-1.625c.317.69-.822.492-1.111.812-.141-.664.207-1.03-.15-1.826.884-.092.9.9,1.26,1.014ZM123.8,58.561c-.278-1.25,1.813-1.314,2.29-2.18C126.338,58.159,124.823,57.408,123.8,58.561Zm1.978,4.454a2.3,2.3,0,0,0-.465-1.247l1.328-.56c.648,1.492-.662.743-.863,1.807ZM26,125.006c1.56-2.227,5.837-3.105,9.992-6.012C34.3,120.824,29.1,123.079,26,125.006ZM126.276,78.48c.578,1.359-1.843,1.24-2.524,1.978C122.377,80.327,126.21,79.308,126.276,78.48ZM114.6,88.456c-.059-1.109,2.583-.943,2.528-2.053C118.229,87.07,114.921,88.439,114.6,88.456Zm-.63,1.341c-1.333-1.817-3.368,2.288-.393-.18C113.694,89.8,113.813,89.96,113.974,89.8ZM97.826,99.71c1.512-1.15,4.1-4.16,6.348-3.42C102,97.32,99.318,99.084,97.826,99.71Zm-31.673,18.4a45.735,45.735,0,0,1,6.2-3.794c-.1.955-2.1,1.98-3.795,2.91-1.27.7-4.163,2.275-2.406.884Z" transform="matrix(-0.545, -0.839, 0.839, -0.545, 180.563, 190.784)" fill-rule="evenodd" fill="url(#linear-gradient)"/>
    <g id="logo-light" transform="translate(50 38)">
      <path id="Path_4299" data-name="Path 4299" d="M41.149,0A41.149,41.149,0,1,0,82.3,41.149,41.148,41.148,0,0,0,41.149,0Z" fill-rule="evenodd" fill="url(#linear-gradient-2)"/>
      <path id="Path_4300" data-name="Path 4300" d="M54.18,61.869A30.866,30.866,0,1,1,40.874,2.056,41.184,41.184,0,0,1,61.865,37.918,40.96,40.96,0,0,1,54.18,61.869Z" transform="translate(20.434 3.232)" fill-rule="evenodd" fill="url(#linear-gradient-3)"/>
    </g>
  </g>
</svg>
